<?xml version="1.0" encoding="UTF-8" standalone="no"?>
<svg
        version="1.1"
        id="Layer_1"
        x="0px"
        y="0px"
        viewBox="39 169 312 312"
        xml:space="preserve"
        width="512"
        height="512"
        xmlns="http://www.w3.org/2000/svg"
        xmlns:svg="http://www.w3.org/2000/svg"><defs
   id="defs95" />
    <g
            id="g348"
            transform="translate(8,6)"><ellipse
     transform="rotate(-45.004051)"
     style="fill:#cc055f;stroke-width:1.00006"
     cx="-27.221029"
     cy="345.65579"
     rx="20.002222"
     ry="39.204395"
     id="ellipse2" /><path
            style="fill:#2a8c79"
            d="m 203.009,475.451 c -35.2,35.2 -104,24.8 -153.6,-24.8 -49.6,-49.6 -60,-118.4 -24.8,-153.6 35.2,-35.2 104,-24.8 153.6,24.8 49.6,49.6 60.8,118.4 24.8,153.6 z"
            id="path4" /><path
            style="fill:#37a08c"
            d="m 287.009,282.651 c -20.8,-9.6 -41.6,-12.8 -60,-11.2 4,-28.8 0.8,-60.8 -10.4,-86.4 -24,-54.4 -69.6,42.4 -96.8,69.6 -8.8,8.8 -20.8,12 -31.2,13.6 -6.4,0 -12.8,0.8 -18.4,1.6 -0.8,0 -1.6,0 -2.4,0.8 -13.6,3.2 -25.6,8.8 -35.2,18.4 -35.2,35.2 -24.8,104 24.8,153.6 49.6,49.6 118.4,60.8 153.6,24.8 9.6,-9.6 16,-21.6 18.4,-35.2 0,-0.8 0,-1.6 0.8,-1.6 0.8,-5.6 1.6,-12 1.6,-18.4 1.6,-10.4 4,-22.4 12.8,-31.2 28,-28 96.8,-74.4 42.4,-98.4 z"
            id="path6" /><path
            style="fill:#44ad8a"
            d="m 287.009,282.651 c -20.8,-9.6 -41.6,-12.8 -60,-11.2 4,-28.8 0.8,-60.8 -10.4,-86.4 -24,-54.4 -69.6,42.4 -96.8,69.6 -8.8,8.8 -20.8,12 -31.2,13.6 -6.4,0 -12.8,0.8 -18.4,1.6 -0.8,0 -1.6,0 -2.4,0.8 -13.6,3.2 -25.6,8.8 -35.2,18.4 -15.2,15.2 -22.4,36.8 -20.8,60.8 h 266.4 c 25.6,-24 45.6,-50.4 8.8,-67.2 z"
            id="path8" /><path
            style="fill:#74c1b2"
            d="m 287.009,282.651 c -3.2,-1.6 -6.4,-2.4 -9.6,-4 -0.8,0 -0.8,0 -1.6,-0.8 -3.2,-0.8 -6.4,-2.4 -8.8,-3.2 v 0 0 0 c -6.4,5.6 -12.8,9.6 -18.4,10.4 0.8,-4.8 0.8,-8.8 0.8,-13.6 v 0 c -4,-0.8 -7.2,-0.8 -11.2,-0.8 -0.8,0 -0.8,0 -1.6,0 -3.2,0 -7.2,0 -10.4,0 0.8,-3.2 0.8,-6.4 0.8,-10.4 0,-1.6 0,-2.4 0,-4 0,-0.8 0,-0.8 0,-1.6 0,-0.8 0,-1.6 0,-1.6 0,-0.8 0,-1.6 0,-2.4 0,-1.6 0,-3.2 0,-4.8 0,-0.8 0,-1.6 0,-2.4 0,-0.8 0,-0.8 0,-1.6 v -0.8 c 0,-2.4 0,-4 0,-6.4 0,-0.8 0,-0.8 0,-1.6 v 0 -0.8 c -0.8,-12 -3.2,-23.2 -6.4,-33.6 v 0 c -20,5.6 -37.6,60.8 -55.2,78.4 -7.2,8 -24.8,5.6 -33.6,6.4 -5.6,0 -10.4,0 -15.2,1.6 -0.8,0 -1.6,0 -1.6,0 -11.2,2.4 -28.8,6.4 -36.8,14.4 -29.6,30.4 -29.6,76.8 12,118.4 24.8,24.8 71.2,56 106.4,60 4.8,-3.2 9.6,-6.4 14.4,-10.4 4,-4 7.2,-8 9.6,-12.8 3.2,-5.6 5.6,-12 7.2,-16.8 0.8,-1.6 1.6,-4 1.6,-5.6 0,-0.8 0,-1.6 0.8,-1.6 0.8,-5.6 1.6,-12 1.6,-18.4 1.6,-10.4 4,-22.4 12.8,-31.2 28,-28 96.8,-74.4 42.4,-98.4 z"
            id="path10" /><path
            style="fill:#9eddd1"
            d="m 275.809,278.651 v 0 c -3.2,-0.8 -6.4,-2.4 -9.6,-3.2 v 0 0 0 c -6.4,5.6 -12.8,9.6 -18.4,10.4 0.8,-4.8 0.8,-8.8 0.8,-13.6 v 0 c -4,-0.8 -7.2,-0.8 -11.2,-0.8 -0.8,0 -0.8,0 -1.6,0 -3.2,0 -7.2,0 -10.4,0 0.8,-3.2 0.8,-6.4 0.8,-10.4 0,-1.6 0,-2.4 0,-4 0,-0.8 0,-0.8 0,-1.6 0,-0.8 0,-1.6 0,-1.6 0,-0.8 0,-1.6 0,-2.4 0,-1.6 0,-3.2 0,-4.8 v 0 c 0,-0.8 0,-1.6 0,-1.6 0,-0.8 0,-0.8 0,-1.6 v -0.8 c 0,-2.4 0,-4 0,-6.4 0,-0.8 0,-0.8 0,-1.6 v 0 -0.8 c -0.8,-12 -3.2,-23.2 -6.4,-33.6 v 0 0 c -20,5.6 -37.6,60.8 -55.2,78.4 -7.2,8 -24.8,5.6 -33.6,6.4 -5.6,0 -10.4,0 -15.2,1.6 -0.8,0 -1.6,0 -1.6,0 -11.2,2.4 -28.8,6.4 -36.8,14.4 -13.6,13.6 -20.8,31.2 -20.8,50.4 h 220.8 l 0.8,-0.8 c 0.8,-0.8 2.4,-1.6 3.2,-3.2 0.8,-0.8 0.8,-0.8 1.6,-1.6 1.6,-1.6 2.4,-2.4 4,-4 0,0 0,0 0,-0.8 1.6,-1.6 2.4,-2.4 4,-4 l 0.8,-0.8 c 0.8,-0.8 1.6,-2.4 2.4,-3.2 l 0.8,-0.8 c 0.8,-1.6 2.4,-3.2 3.2,-4 v 0 c 0.8,-1.6 1.6,-2.4 2.4,-4 l 0.8,-0.8 c 0.8,-0.8 0.8,-2.4 1.6,-3.2 0,0 0,-0.8 0.8,-0.8 0.8,-1.6 0.8,-2.4 1.6,-4 0,0 0,0 0,-0.8 0,-0.8 0.8,-2.4 0.8,-3.2 v -0.8 c 0,-0.8 0,-2.4 0,-3.2 v -0.8 c 0,-1.6 0,-2.4 -0.8,-4 v -0.8 c 0,-0.8 -0.8,-1.6 -1.6,-3.2 0,0 0,-0.8 -0.8,-0.8 -0.8,-0.8 -1.6,-1.6 -2.4,-3.2 0,0 0,0 0,-0.8 -0.8,-0.8 -2.4,-2.4 -3.2,-3.2 l -0.8,-0.8 c -0.8,-0.8 -2.4,-1.6 -3.2,-2.4 -0.8,0 -0.8,-0.8 -1.6,-0.8 -1.6,-0.8 -3.2,-1.6 -5.6,-3.2 -3.2,-1.6 -6.4,-2.4 -9.6,-4 0,-0.8 0,-0.8 -0.8,-0.8 z"
            id="path12" /><path
            d="m 249.409,293.851 c -8,8 -20,-6.4 -27.2,-13.6 l -1.6,-1.6 c -8,-8 -21.6,-20 -13.6,-27.2 l 174.4,-160 c 8,-8 20,-8 27.2,0 l 1.6,1.6 c 7.2,8 7.2,20 0,27.2 z"
            id="path14" /><g
            id="g20">
	<path
            style="fill:#3a382d"
            d="m 259.009,284.251 c -8,8 -20,-6.4 -27.2,-13.6 l -1.6,-1.6 c -8,-8 -21.6,-20 -13.6,-27.2 l 174.4,-160 c 8,-8 20,-8 27.2,0 l 1.6,1.6 c 7.2,8 7.2,20 0,27.2 z"
            id="path16" />
        <path
                style="fill:#3a382d"
                d="m 435.009,109.051 c -7.2,8 -20,8 -27.2,0 l -16,-16 c -8,-8 -8,-20 0,-27.2 l 65.6,-47.2 c 9.6,-6.4 18.4,-10.4 27.2,0 l 1.6,1.6 c 18.4,19.2 -9.6,21.6 -16.8,29.6 z"
                id="path18" />
</g><path
            style="fill:#d3d3d3"
            d="m 150.209,414.651 c -4.8,4.8 -5.6,12 -10.4,7.2 l -61.6,-61.6 c -4.8,-4.8 2.4,-5.6 7.2,-10.4 v 0 c 4.8,-4.8 12.8,-4.8 17.6,0 l 47.2,47.2 c 4.8,4.8 4.8,12.8 0,17.6 z"
            id="path22" /><path
            style="fill:#e8e3dd"
            d="m 153.409,411.451 c -4.8,4.8 -5.6,12 -10.4,7.2 l -61.6,-61.6 c -4.8,-4.8 2.4,-5.6 7.2,-10.4 v 0 c 4.8,-4.8 12.8,-4.8 17.6,0 l 47.2,47.2 c 4.8,4.8 4.8,12.8 0,17.6 z"
            id="path24" /><g
            id="g34"
            transform="translate(4,6)">
	<path
            style="fill:#44ad8a"
            d="m 444.609,13.051 c -2.4,1.6 -6.4,1.6 -8,-1.6 v 0 c -1.6,-2.4 -1.6,-6.4 1.6,-8 l 3.2,-2.4 c 2.4,-1.6 6.4,-1.6 8,1.6 v 0 c 1.6,2.4 1.6,6.4 -1.6,8 z"
            id="path26" />
        <path
                style="fill:#44ad8a"
                d="m 425.409,25.051 c -2.4,1.6 -6.4,1.6 -8,-1.6 v 0 c -1.6,-2.4 -1.6,-6.4 1.6,-8 l 3.2,-2.4 c 2.4,-1.6 6.4,-1.6 8,1.6 v 0 c 1.6,2.4 1.6,6.4 -1.6,8 z"
                id="path28" />
        <path
                style="fill:#44ad8a"
                d="m 407.009,38.651 c -2.4,1.6 -6.4,1.6 -8,-1.6 v 0 c -1.6,-2.4 -1.6,-6.4 1.6,-8 l 3.2,-2.4 c 2.4,-1.6 6.4,-1.6 8,1.6 v 0 c 1.6,2.4 1.6,6.4 -1.6,8 z"
                id="path30" />
        <path
                style="fill:#44ad8a"
                d="m 388.609,52.251 c -2.4,1.6 -6.4,1.6 -8,-1.6 v 0 c -1.6,-2.4 -1.6,-6.4 1.6,-8 l 2.4,-2.4 c 2.4,-1.6 6.4,-1.6 8,1.6 v 0 c 1.6,2.4 1.6,6.4 -1.6,8 z"
                id="path32" />
</g><path
            style="fill:#f29c11"
            d="m 410.209,109.851 c -0.8,0.8 -1.6,0.8 -2.4,0 l -16.8,-16.8 c -0.8,-0.8 -0.8,-1.6 0,-2.4 v 0 c 0.8,-0.8 1.6,-0.8 2.4,0 l 16.8,16.8 c 0,0.8 0,1.6 0,2.4 z"
            id="path36" /><g
            id="g48">
	<path
            style="fill:#ddd3c3"
            d="m 379.009,125.851 c -1.6,1.6 -3.2,1.6 -4.8,0 -1.6,-1.6 -1.6,-3.2 0,-4.8 1.6,-1.6 3.2,-1.6 4.8,0 0.8,1.6 0.8,3.2 0,4.8 z"
            id="path38" />
        <path
                style="fill:#ddd3c3"
                d="m 347.809,157.051 c -1.6,1.6 -3.2,1.6 -4.8,0 -1.6,-1.6 -1.6,-3.2 0,-4.8 1.6,-1.6 3.2,-1.6 4.8,0 0.8,1.6 0.8,3.2 0,4.8 z"
                id="path40" />
        <path
                style="fill:#ddd3c3"
                d="m 283.009,221.851 c -1.6,1.6 -3.2,1.6 -4.8,0 -1.6,-1.6 -1.6,-3.2 0,-4.8 1.6,-1.6 3.2,-1.6 4.8,0 0.8,1.6 0.8,3.2 0,4.8 z"
                id="path42" />
        <path
                style="fill:#ddd3c3"
                d="m 313.409,181.851 c -1.6,1.6 -3.2,1.6 -4.8,0 -1.6,-1.6 -1.6,-3.2 0,-4.8 1.6,-1.6 3.2,-1.6 4.8,0 0.8,1.6 0.8,4 0,4.8 z"
                id="path44" />
        <path
                style="fill:#ddd3c3"
                d="m 323.009,191.451 c -1.6,1.6 -3.2,1.6 -4.8,0 -1.6,-1.6 -1.6,-3.2 0,-4.8 1.6,-1.6 3.2,-1.6 4.8,0 0.8,1.6 0.8,3.2 0,4.8 z"
                id="path46" />
</g><path
            style="fill:#3a382d"
            d="m 201.409,373.051 c -2.4,2.4 -6.4,2.4 -8,0 l -60,-60 c -2.4,-2.4 -2.4,-6.4 0,-8 l 16.8,-16.8 c 2.4,-2.4 6.4,-2.4 8,0 l 60,60 c 2.4,2.4 2.4,6.4 0,8 z"
            id="path50" /><g
            id="g60">
	<circle
            style="fill:#e8e3dd"
            cx="162.209"
            cy="317.05099"
            r="2.4000001"
            id="circle52" />
        <circle
                style="fill:#e8e3dd"
                cx="171.009"
                cy="325.85101"
                r="2.4000001"
                id="circle54" />
        <path
                style="fill:#e8e3dd"
                d="m 182.209,337.051 c -0.8,0.8 -2.4,0.8 -3.2,0 -0.8,-0.8 -0.8,-2.4 0,-3.2 0.8,-0.8 2.4,-0.8 3.2,0 0.8,0.8 0.8,2.4 0,3.2 z"
                id="path56" />
        <path
                style="fill:#e8e3dd"
                d="m 191.009,345.851 c -0.8,0.8 -2.4,0.8 -3.2,0 -0.8,-0.8 -0.8,-2.4 0,-3.2 0.8,-0.8 2.4,-0.8 3.2,0 1.6,0.8 1.6,2.4 0,3.2 z"
                id="path58" />
</g>
</g>
</svg>
